<?xml version="1.0" standalone="no"?>
<!DOCTYPE svg PUBLIC "-//W3C//DTD SVG 20010904//EN"
 "http://www.w3.org/TR/2001/REC-SVG-20010904/DTD/svg10.dtd">
<svg version="1.0" xmlns="http://www.w3.org/2000/svg"
 width="268.000000pt" height="256.000000pt" viewBox="0 0 268.000000 256.000000"
 preserveAspectRatio="xMidYMid meet">
<metadata>
Created by potrace 1.10, written by Peter Selinger 2001-2011
</metadata>
<g transform="translate(0.000000,256.000000) scale(0.100000,-0.100000)"
fill="#000000" stroke="none">
<path d="M840 2438 c-93 -11 -165 -45 -281 -132 -206 -155 -378 -399 -450
-637 -17 -57 -20 -84 -15 -138 23 -225 99 -386 255 -541 83 -82 224 -184 241
-175 3 2 4 78 2 169 l-3 166 -47 22 c-72 34 -152 120 -200 216 -23 46 -44 98
-48 116 -6 33 -7 34 -66 40 -103 12 -142 83 -79 146 28 28 29 29 127 23 108
-5 144 -20 156 -64 32 -116 53 -179 71 -208 25 -42 76 -101 87 -101 4 0 10 25
13 56 3 31 8 58 11 61 3 3 18 -4 34 -15 77 -55 240 -87 323 -64 l37 10 4 -162
c3 -136 6 -167 23 -201 41 -83 134 -110 208 -60 l37 26 0 -96 0 -95 43 21 c23
12 54 30 69 40 33 24 35 24 91 -1 l46 -21 -57 -77 c-32 -42 -83 -113 -113
-157 -31 -44 -86 -120 -122 -169 -63 -84 -67 -93 -67 -142 0 -29 4 -56 10 -59
5 -3 103 -24 217 -46 114 -22 262 -51 328 -64 73 -14 126 -20 136 -15 14 8
187 243 611 831 l156 216 4 64 3 64 -336 64 c-185 35 -343 62 -351 58 -9 -3
-80 -96 -159 -206 -79 -110 -147 -201 -151 -201 -3 0 -10 12 -16 28 -8 23 -4
34 25 72 51 66 108 192 133 295 20 78 22 107 17 230 -4 105 -11 157 -27 210
-45 143 -123 268 -231 371 -146 138 -296 208 -503 234 -89 11 -90 11 -196 -2z
m329 -64 c269 -67 498 -300 573 -583 26 -101 28 -279 3 -383 -17 -73 -76 -206
-136 -305 l-31 -53 21 -43 c12 -24 21 -51 21 -60 0 -9 5 -37 12 -62 7 -24 10
-47 7 -49 -8 -8 -108 30 -128 48 -39 35 -70 38 -128 11 -31 -14 -57 -25 -59
-25 -2 0 -4 16 -4 36 0 20 -7 51 -16 69 -14 30 -14 36 0 63 48 92 105 334 92
386 -4 16 -21 42 -38 58 -24 22 -40 28 -74 28 l-44 0 0 70 c0 60 4 76 30 117
32 51 40 111 19 157 -9 19 -9 32 1 55 11 27 9 37 -17 93 -38 81 -116 158 -200
200 -57 28 -79 33 -158 36 -112 5 -179 -12 -256 -65 -77 -52 -117 -99 -153
-173 -29 -61 -31 -72 -31 -180 0 -104 3 -121 27 -172 14 -31 45 -76 67 -101
23 -24 41 -49 41 -54 0 -17 -48 -55 -60 -48 -18 11 -56 103 -69 166 -8 39 -23
69 -45 95 l-33 38 -101 6 c-55 3 -104 9 -108 13 -9 9 41 114 90 191 63 98 159
207 242 276 164 135 227 165 359 169 38 2 72 4 74 7 8 8 117 -9 210 -32z
m-184 -179 c130 -34 242 -143 280 -272 6 -23 -8 -32 -20 -13 -17 27 -96 -8
-126 -56 -12 -20 -21 -54 -23 -85 -1 -36 -7 -54 -19 -60 -9 -6 -26 -28 -37
-49 -20 -38 -56 -68 -68 -56 -3 4 2 20 11 35 27 46 23 62 -13 49 -50 -17 -245
-5 -312 19 -60 22 -72 19 -38 -12 11 -10 20 -23 20 -30 0 -6 16 -30 35 -52 44
-52 108 -78 166 -69 37 6 41 5 33 -11 -4 -10 -9 -34 -9 -53 -1 -19 -5 -37 -9
-39 -16 -9 -95 13 -149 41 -148 79 -230 252 -197 413 16 78 42 127 97 186 102
110 238 150 378 114z m277 -371 c8 -32 5 -49 -19 -106 -18 -44 -23 -45 -48
-18 -10 11 -26 20 -37 20 -15 0 -18 8 -18 46 0 39 5 51 35 81 33 33 37 34 57
21 12 -8 26 -28 30 -44z m-71 -164 c18 -24 18 -32 4 -175 -15 -151 -19 -252
-10 -244 2 3 11 48 20 99 13 77 21 99 41 118 31 27 54 28 88 1 31 -24 33 -52
10 -165 -28 -145 -62 -232 -108 -280 -48 -50 -81 -56 -132 -25 -51 31 -59 71
-59 281 0 253 11 372 37 400 27 29 84 24 109 -10z m-343 -20 c91 0 92 0 92
-24 0 -29 -39 -61 -54 -46 -6 6 -31 10 -56 10 -52 0 -113 29 -119 55 -2 14 2
17 20 12 13 -4 66 -7 117 -7z m172 -137 c-4 -61 -7 -68 -27 -71 -32 -5 -93 27
-93 48 0 39 58 84 115 89 6 1 8 -25 5 -66z m-784 -4 c13 -5 28 -28 42 -66 42
-115 118 -210 231 -286 l41 -28 0 -115 c0 -71 -4 -114 -10 -114 -35 0 -180
124 -240 205 -86 117 -160 299 -160 392 0 34 0 34 38 27 20 -4 46 -10 58 -15z
m2042 -203 c156 -30 285 -56 288 -59 3 -2 -55 -87 -127 -188 -73 -101 -168
-233 -212 -294 -43 -60 -83 -111 -87 -113 -5 -2 -6 14 -4 35 7 57 -3 65 -55
47 -60 -20 -144 -3 -160 33 -8 17 -17 23 -29 19 -13 -4 -20 3 -28 29 -7 23 -7
36 -1 38 6 2 3 22 -8 50 -17 46 -19 47 -37 30 -14 -12 -18 -29 -17 -62 1 -25
-4 -80 -11 -122 -12 -70 -12 -79 6 -115 16 -32 25 -40 52 -42 19 -2 44 4 57
12 14 9 27 16 30 16 3 0 5 -54 5 -120 0 -66 -2 -120 -4 -120 -2 0 -93 18 -202
39 -110 22 -242 47 -294 56 -52 10 -99 21 -103 25 -6 6 171 270 220 329 2 3
37 -12 79 -33 41 -21 77 -37 79 -34 2 2 -12 47 -31 100 l-34 96 136 189 c147
203 165 223 191 217 10 -3 145 -29 301 -58z m-368 -614 c0 -6 -44 -41 -52 -42
-5 0 -8 20 -8 45 l0 46 30 -23 c17 -12 30 -24 30 -26z m138 -2 c33 0 52 -4 52
-12 0 -18 31 -48 50 -48 9 0 25 9 35 20 10 11 20 18 23 15 6 -5 -35 -65 -184
-270 -163 -222 -173 -235 -194 -235 -37 0 -565 102 -590 114 -20 9 -25 19 -23
46 2 43 73 146 99 143 41 -4 170 -35 178 -43 5 -5 -1 -22 -13 -38 -29 -41 -26
-68 9 -104 26 -25 36 -29 62 -24 48 10 93 42 114 83 21 42 32 53 48 47 11 -4
24 -6 139 -26 109 -20 128 4 122 155 -3 83 -7 103 -25 121 -11 12 -20 27 -20
32 0 19 25 35 45 30 11 -3 44 -6 73 -6z m-409 -294 c31 -37 -57 -116 -112
-102 -22 5 -27 12 -27 35 0 58 105 108 139 67z"/>
<path d="M594 1975 c-18 -98 65 -189 131 -142 17 13 14 18 -40 83 -89 106 -83
102 -91 59z"/>
<path d="M1107 1985 c-11 -7 -68 -42 -128 -76 -60 -34 -109 -66 -109 -70 0
-15 53 -49 76 -49 58 0 118 50 160 132 29 58 30 85 1 63z m-96 -126 c-24 -20
-51 -25 -51 -11 0 10 63 41 70 35 3 -3 -6 -13 -19 -24z"/>
<path d="M2100 1100 c0 -16 4 -30 9 -30 10 0 22 40 15 52 -11 18 -24 6 -24
-22z"/>
<path d="M2151 1078 c-5 -13 -7 -24 -6 -26 7 -8 45 20 45 33 0 23 -30 17 -39
-7z"/>
<path d="M2186 1035 c-11 -8 -17 -18 -13 -21 10 -10 59 6 55 18 -6 18 -21 19
-42 3z"/>
<path d="M1960 1022 c-47 -25 -83 -94 -75 -142 16 -85 81 -136 161 -127 56 6
98 37 119 89 50 126 -84 243 -205 180z m128 -38 c66 -46 57 -157 -14 -184 -49
-19 -84 -12 -120 24 -35 35 -42 64 -24 110 20 55 111 83 158 50z"/>
<path d="M2210 1905 c-8 -10 -14 -79 -17 -213 -6 -186 -5 -199 12 -206 38 -14
45 11 54 214 5 126 5 199 -2 208 -13 16 -32 15 -47 -3z"/>
<path d="M1951 1866 c-8 -10 3 -58 47 -201 59 -195 76 -225 107 -194 15 14 11
33 -41 200 -31 101 -61 190 -66 197 -14 16 -33 15 -47 -2z"/>
<path d="M2456 1843 c-35 -69 -138 -354 -132 -368 7 -20 45 -16 57 5 5 8 38
91 74 183 52 134 63 172 55 188 -15 27 -37 24 -54 -8z"/>
</g>
</svg>
