<?xml version="1.0" standalone="no"?>
<!DOCTYPE svg PUBLIC "-//W3C//DTD SVG 20010904//EN"
 "http://www.w3.org/TR/2001/REC-SVG-20010904/DTD/svg10.dtd">
<svg version="1.0" xmlns="http://www.w3.org/2000/svg"
 width="225.000000pt" height="225.000000pt" viewBox="0 0 225.000000 225.000000"
 preserveAspectRatio="xMidYMid meet">
<metadata>
Created by potrace 1.10, written by Peter Selinger 2001-2011
</metadata>
<g transform="translate(0.000000,225.000000) scale(0.100000,-0.100000)"
fill="#000000" stroke="none">
<path d="M390 2051 c-46 -14 -85 -39 -121 -78 -51 -53 -71 -97 -77 -169 -9
-115 48 -217 152 -272 42 -22 64 -26 126 -27 112 0 190 47 245 147 26 46 30
63 30 128 -1 90 -31 158 -96 213 -67 58 -177 82 -259 58z m165 -43 c161 -61
207 -275 85 -396 -46 -47 -85 -64 -157 -70 -53 -4 -70 -1 -117 22 -66 32 -109
83 -127 151 -22 81 -13 143 30 203 70 96 179 130 286 90z"/>
<path d="M1039 2047 c-125 -47 -189 -136 -189 -264 0 -124 79 -234 191 -267
66 -20 102 -20 168 0 112 33 191 143 191 267 0 110 -47 190 -141 241 -62 34
-162 44 -220 23z m186 -47 c90 -40 140 -119 139 -221 0 -76 -30 -137 -90 -187
-113 -93 -288 -58 -361 73 -37 67 -39 159 -5 224 23 43 27 48 70 85 34 29 117
54 165 49 23 -3 60 -13 82 -23z"/>
<path d="M1684 2044 c-58 -21 -120 -78 -152 -138 -22 -42 -27 -64 -27 -126 0
-65 4 -82 30 -128 55 -100 133 -147 245 -147 62 1 84 5 126 27 104 55 161 157
152 272 -3 34 -13 77 -23 96 -24 49 -83 108 -130 132 -52 27 -164 34 -221 12z
m203 -46 c178 -83 177 -351 -1 -434 -163 -76 -346 39 -346 215 1 95 46 173
125 214 78 40 144 42 222 5z"/>
<path d="M342 1374 c-56 -28 -91 -63 -125 -128 -17 -32 -22 -58 -22 -121 0
-70 4 -87 29 -133 52 -93 133 -142 237 -142 94 0 136 17 201 80 83 81 105 168
72 280 -20 68 -108 160 -170 178 -72 21 -163 15 -222 -14z m236 -33 c138 -70
176 -253 76 -369 -52 -61 -105 -85 -184 -86 -137 -1 -241 102 -241 239 0 179
190 297 349 216z"/>
<path d="M1014 1381 c-105 -48 -164 -140 -164 -255 1 -163 114 -276 275 -276
161 0 275 114 275 275 0 114 -57 206 -155 251 -64 30 -170 33 -231 5z m185
-27 c92 -27 171 -131 171 -224 0 -59 -31 -131 -75 -175 -82 -82 -209 -95 -307
-30 -50 33 -86 89 -100 156 -24 114 49 239 159 273 63 19 88 19 152 0z"/>
<path d="M1680 1387 c-19 -6 -60 -36 -92 -67 -83 -81 -105 -168 -72 -279 33
-111 144 -191 264 -190 114 0 193 45 246 141 25 46 29 63 29 133 0 63 -5 89
-22 121 -57 107 -134 155 -247 153 -39 -1 -87 -6 -106 -12z m206 -45 c87 -45
134 -123 134 -219 -1 -212 -248 -317 -405 -172 -137 127 -80 350 105 410 38
13 123 3 166 -19z"/>
<path d="M400 741 c-139 -46 -219 -159 -208 -295 6 -72 26 -116 77 -169 101
-107 269 -116 380 -21 65 56 95 123 96 214 0 65 -4 82 -30 128 -32 59 -67 92
-129 124 -44 22 -145 33 -186 19z m177 -56 c159 -80 180 -306 38 -407 -118
-84 -266 -59 -350 60 -25 37 -30 55 -33 116 -3 59 0 81 18 119 57 121 206 172
327 112z"/>
<path d="M1036 734 c-64 -20 -156 -110 -174 -170 -16 -57 -15 -157 3 -200 24
-58 70 -108 127 -140 46 -25 63 -29 133 -29 70 0 87 4 133 29 96 53 141 132
141 246 1 83 -29 149 -92 207 -73 67 -170 88 -271 57z m165 -36 c51 -15 114
-69 141 -122 30 -56 31 -155 1 -211 -98 -184 -337 -184 -436 0 -29 55 -29 154
0 210 57 108 178 158 294 123z"/>
<path d="M1697 736 c-169 -63 -242 -239 -163 -394 51 -101 155 -159 270 -150
73 6 128 32 177 85 51 53 71 97 77 169 9 116 -49 219 -151 271 -63 31 -155 40
-210 19z m209 -61 c211 -131 117 -450 -132 -447 -85 1 -174 58 -210 136 -58
125 -5 269 121 328 62 29 158 21 221 -17z"/>
</g>
</svg>
