<svg xmlns="http://www.w3.org/2000/svg" width="262" height="262" viewBox="0 0 262 262" version="1.1"><path d="M 91.557 99.223 C 87.937 104.390, 89.059 106.396, 104 121.465 C 111.700 129.232, 118 136.222, 118 137 C 118 137.778, 111.700 144.768, 104 152.535 C 91.822 164.818, 90 167.074, 90 169.875 C 90 172.073, 90.840 173.874, 92.646 175.548 C 97.520 180.064, 98.354 179.570, 116.804 161.250 C 123.589 154.512, 129.666 149, 130.308 149 C 130.950 149, 137.781 155.255, 145.487 162.901 C 153.194 170.547, 160.402 177.067, 161.503 177.390 C 162.663 177.731, 164.874 177.147, 166.753 176.004 C 169.494 174.337, 170 173.441, 170 170.251 C 170 166.726, 169.064 165.539, 156 152.500 C 148.300 144.815, 142 137.922, 142 137.182 C 142 136.443, 148.300 129.548, 156 121.860 C 169.073 108.807, 170 107.631, 170 104.096 C 170 99.421, 167.589 97, 162.933 97 C 159.877 97, 158.003 98.518, 144.842 111.658 L 130.160 126.315 115.330 111.678 C 101.660 98.186, 100.211 97.040, 96.807 97.021 C 94.109 97.006, 92.694 97.599, 91.557 99.223" stroke="none" fill="#fcf1ef" fill-rule="evenodd"/><path d="M 115 8.478 C 84.676 12.970, 59.606 25.820, 39.526 47.165 C 5.337 83.509, -4.123 135.557, 15.012 182.044 C 25.894 208.479, 48.018 232.393, 73.500 245.263 C 89.310 253.248, 96.627 255.491, 118.115 258.939 C 138.288 262.175, 164.982 257.171, 187.565 245.918 C 217.272 231.116, 240.175 204.528, 250.806 172.500 C 254.302 161.969, 254.652 160.269, 256.493 144.845 C 257.694 134.779, 257.686 131.576, 256.428 121.345 C 254.377 104.664, 252.958 98.760, 248.055 86.500 C 241.499 70.110, 231.647 55.640, 218.392 42.936 C 197.821 23.221, 174.937 12.383, 145.500 8.412 C 133.474 6.790, 126.292 6.806, 115 8.478 M 91.557 99.223 C 87.937 104.390, 89.059 106.396, 104 121.465 C 111.700 129.232, 118 136.222, 118 137 C 118 137.778, 111.700 144.768, 104 152.535 C 91.822 164.818, 90 167.074, 90 169.875 C 90 172.073, 90.840 173.874, 92.646 175.548 C 97.520 180.064, 98.354 179.570, 116.804 161.250 C 123.589 154.512, 129.666 149, 130.308 149 C 130.950 149, 137.781 155.255, 145.487 162.901 C 153.194 170.547, 160.402 177.067, 161.503 177.390 C 162.663 177.731, 164.874 177.147, 166.753 176.004 C 169.494 174.337, 170 173.441, 170 170.251 C 170 166.726, 169.064 165.539, 156 152.500 C 148.300 144.815, 142 137.922, 142 137.182 C 142 136.443, 148.300 129.548, 156 121.860 C 169.073 108.807, 170 107.631, 170 104.096 C 170 99.421, 167.589 97, 162.933 97 C 159.877 97, 158.003 98.518, 144.842 111.658 L 130.160 126.315 115.330 111.678 C 101.660 98.186, 100.211 97.040, 96.807 97.021 C 94.109 97.006, 92.694 97.599, 91.557 99.223" stroke="none" fill="#fa443c" fill-rule="evenodd"/></svg>