<svg xmlns="http://www.w3.org/2000/svg" width="160" height="160" viewBox="0 0 160 160" version="1.1"><path d="M 92.719 61.250 C 89.808 65.787, 84.068 74.780, 79.963 81.233 C 75.858 87.686, 72.234 92.974, 71.910 92.983 C 71.585 92.992, 68.306 89.400, 64.622 85 C 57.600 76.611, 54.875 75.268, 51.571 78.571 C 48.638 81.505, 48.829 81.856, 61.776 97.250 C 67.866 104.490, 69.629 106, 71.992 106 C 73.909 106, 75.569 105.096, 77.042 103.250 C 82.561 96.335, 105.981 59.280, 105.990 57.450 C 106.004 54.620, 104.117 53, 100.806 53 C 98.401 53, 97.275 54.148, 92.719 61.250" stroke="none" fill="#eff6fb" fill-rule="evenodd"/><path d="M 61.500 4.427 C 47.128 7.267, 32.550 15.235, 21.864 26.092 C -9.924 58.388, -6.772 112.790, 28.500 140.655 C 34.806 145.637, 42.751 150.567, 46 151.515 C 47.375 151.917, 48.950 152.599, 49.500 153.033 C 52.686 155.544, 64.220 157.395, 77 157.446 C 93.191 157.511, 98.070 156.448, 111.527 149.925 C 133.784 139.138, 150.327 116.958, 154.103 92.843 C 155.438 84.318, 154.707 67.879, 152.665 60.500 C 145.361 34.103, 123.514 12.516, 96.500 5.003 C 90.008 3.197, 69.437 2.859, 61.500 4.427 M 92.719 61.250 C 89.808 65.787, 84.068 74.780, 79.963 81.233 C 75.858 87.686, 72.234 92.974, 71.910 92.983 C 71.585 92.992, 68.306 89.400, 64.622 85 C 57.600 76.611, 54.875 75.268, 51.571 78.571 C 48.638 81.505, 48.829 81.856, 61.776 97.250 C 67.866 104.490, 69.629 106, 71.992 106 C 73.909 106, 75.569 105.096, 77.042 103.250 C 82.561 96.335, 105.981 59.280, 105.990 57.450 C 106.004 54.620, 104.117 53, 100.806 53 C 98.401 53, 97.275 54.148, 92.719 61.250" stroke="none" fill="#347af2" fill-rule="evenodd"/></svg>